STARTFONT 2.1
FONT -FontForge-Sweet16-Book-R-Normal--16-720-16-16-P-57-WinRoman-0
SIZE 72 16 16
FONTBOUNDINGBOX 8 16 0 0
COMMENT "Generated by fontforge, http://fontforge.sourceforge.net"
COMMENT "Copyright (c) 2018, Martin Sedlak"
COMMENT "licensed under boost software license"
STARTPROPERTIES 39
FOUNDRY "FontForge"
FAMILY_NAME "Sweet16"
WEIGHT_NAME "Book"
SLANT "R"
SETWIDTH_NAME "Normal"
ADD_STYLE_NAME ""
PIXEL_SIZE 16
POINT_SIZE 720
RESOLUTION_X 16
RESOLUTION_Y 16
SPACING "P"
AVERAGE_WIDTH 57
CHARSET_REGISTRY "WinRoman"
CHARSET_ENCODING "0"
FONTNAME_REGISTRY ""
CHARSET_COLLECTIONS "WinRoman"
FONT_NAME "Sweet16"
FACE_NAME "Sweet16"
COPYRIGHT "Copyright (c) 2018, Martin Sedlak"
FONT_VERSION "001.000"
FONT_ASCENT 16
FONT_DESCENT 0
UNDERLINE_POSITION 0
UNDERLINE_THICKNESS 1
X_HEIGHT 10
CAP_HEIGHT 13
RAW_ASCENT 1000
RAW_DESCENT 0
NORM_SPACE 4
RELATIVE_WEIGHT 40
RELATIVE_SETWIDTH 50
SUPERSCRIPT_X 0
SUPERSCRIPT_Y 7
SUPERSCRIPT_SIZE 11
SUBSCRIPT_X 0
SUBSCRIPT_Y 2
SUBSCRIPT_SIZE 11
AVG_LOWERCASE_WIDTH 64
AVG_UPPERCASE_WIDTH 66
ENDPROPERTIES
CHARS 256
STARTCHAR uni0000
ENCODING 0
SWIDTH 250 0
DWIDTH 4 0
BBX 1 1 0 0
BITMAP
00
ENDCHAR
STARTCHAR uni0001
ENCODING 1
SWIDTH 250 0
DWIDTH 4 0
BBX 1 1 0 0
BITMAP
00
ENDCHAR
STARTCHAR uni0002
ENCODING 2
SWIDTH 250 0
DWIDTH 4 0
BBX 1 1 0 0
BITMAP
00
ENDCHAR
STARTCHAR uni0003
ENCODING 3
SWIDTH 250 0
DWIDTH 4 0
BBX 1 1 0 0
BITMAP
00
ENDCHAR
STARTCHAR uni0004
ENCODING 4
SWIDTH 250 0
DWIDTH 4 0
BBX 1 1 0 0
BITMAP
00
ENDCHAR
STARTCHAR uni0005
ENCODING 5
SWIDTH 250 0
DWIDTH 4 0
BBX 1 1 0 0
BITMAP
00
ENDCHAR
STARTCHAR uni0006
ENCODING 6
SWIDTH 250 0
DWIDTH 4 0
BBX 1 1 0 0
BITMAP
00
ENDCHAR
STARTCHAR uni0007
ENCODING 7
SWIDTH 250 0
DWIDTH 4 0
BBX 1 1 0 0
BITMAP
00
ENDCHAR
STARTCHAR uni0008
ENCODING 8
SWIDTH 250 0
DWIDTH 4 0
BBX 1 1 0 0
BITMAP
00
ENDCHAR
STARTCHAR uni0009
ENCODING 9
SWIDTH 250 0
DWIDTH 4 0
BBX 1 1 0 0
BITMAP
00
ENDCHAR
STARTCHAR uni000A
ENCODING 10
SWIDTH 250 0
DWIDTH 4 0
BBX 1 1 0 0
BITMAP
00
ENDCHAR
STARTCHAR uni000B
ENCODING 11
SWIDTH 250 0
DWIDTH 4 0
BBX 1 1 0 0
BITMAP
00
ENDCHAR
STARTCHAR uni000C
ENCODING 12
SWIDTH 250 0
DWIDTH 4 0
BBX 1 1 0 0
BITMAP
00
ENDCHAR
STARTCHAR uni000D
ENCODING 13
SWIDTH 250 0
DWIDTH 4 0
BBX 1 1 0 0
BITMAP
00
ENDCHAR
STARTCHAR uni000E
ENCODING 14
SWIDTH 250 0
DWIDTH 4 0
BBX 1 1 0 0
BITMAP
00
ENDCHAR
STARTCHAR uni000F
ENCODING 15
SWIDTH 250 0
DWIDTH 4 0
BBX 1 1 0 0
BITMAP
00
ENDCHAR
STARTCHAR uni0010
ENCODING 16
SWIDTH 250 0
DWIDTH 4 0
BBX 1 1 0 0
BITMAP
00
ENDCHAR
STARTCHAR uni0011
ENCODING 17
SWIDTH 250 0
DWIDTH 4 0
BBX 1 1 0 0
BITMAP
00
ENDCHAR
STARTCHAR uni0012
ENCODING 18
SWIDTH 250 0
DWIDTH 4 0
BBX 1 1 0 0
BITMAP
00
ENDCHAR
STARTCHAR uni0013
ENCODING 19
SWIDTH 250 0
DWIDTH 4 0
BBX 1 1 0 0
BITMAP
00
ENDCHAR
STARTCHAR uni0014
ENCODING 20
SWIDTH 250 0
DWIDTH 4 0
BBX 1 1 0 0
BITMAP
00
ENDCHAR
STARTCHAR uni0015
ENCODING 21
SWIDTH 250 0
DWIDTH 4 0
BBX 1 1 0 0
BITMAP
00
ENDCHAR
STARTCHAR uni0016
ENCODING 22
SWIDTH 250 0
DWIDTH 4 0
BBX 1 1 0 0
BITMAP
00
ENDCHAR
STARTCHAR uni0017
ENCODING 23
SWIDTH 250 0
DWIDTH 4 0
BBX 1 1 0 0
BITMAP
00
ENDCHAR
STARTCHAR uni0018
ENCODING 24
SWIDTH 250 0
DWIDTH 4 0
BBX 1 1 0 0
BITMAP
00
ENDCHAR
STARTCHAR uni0019
ENCODING 25
SWIDTH 250 0
DWIDTH 4 0
BBX 1 1 0 0
BITMAP
00
ENDCHAR
STARTCHAR uni001A
ENCODING 26
SWIDTH 250 0
DWIDTH 4 0
BBX 1 1 0 0
BITMAP
00
ENDCHAR
STARTCHAR uni001B
ENCODING 27
SWIDTH 250 0
DWIDTH 4 0
BBX 1 1 0 0
BITMAP
00
ENDCHAR
STARTCHAR uni001C
ENCODING 28
SWIDTH 250 0
DWIDTH 4 0
BBX 1 1 0 0
BITMAP
00
ENDCHAR
STARTCHAR uni001D
ENCODING 29
SWIDTH 250 0
DWIDTH 4 0
BBX 1 1 0 0
BITMAP
00
ENDCHAR
STARTCHAR uni001E
ENCODING 30
SWIDTH 250 0
DWIDTH 4 0
BBX 1 1 0 0
BITMAP
00
ENDCHAR
STARTCHAR uni001F
ENCODING 31
SWIDTH 250 0
DWIDTH 4 0
BBX 1 1 0 0
BITMAP
00
ENDCHAR
STARTCHAR space
ENCODING 32
SWIDTH 250 0
DWIDTH 4 0
BBX 1 1 0 0
BITMAP
00
ENDCHAR
STARTCHAR exclam
ENCODING 33
SWIDTH 125 0
DWIDTH 2 0
BBX 1 10 0 4
BITMAP
80
80
80
80
80
80
80
00
80
80
ENDCHAR
STARTCHAR quotedbl
ENCODING 34
SWIDTH 250 0
DWIDTH 4 0
BBX 3 3 0 11
BITMAP
A0
A0
A0
ENDCHAR
STARTCHAR numbersign
ENCODING 35
SWIDTH 437 0
DWIDTH 7 0
BBX 6 9 0 4
BITMAP
48
48
FC
48
48
48
FC
48
48
ENDCHAR
STARTCHAR dollar
ENCODING 36
SWIDTH 375 0
DWIDTH 6 0
BBX 5 12 0 3
BITMAP
20
70
88
88
80
70
08
08
88
88
70
20
ENDCHAR
STARTCHAR percent
ENCODING 37
SWIDTH 500 0
DWIDTH 8 0
BBX 7 11 0 3
BITMAP
40
A0
A2
44
08
10
20
44
8A
0A
04
ENDCHAR
STARTCHAR ampersand
ENCODING 38
SWIDTH 500 0
DWIDTH 8 0
BBX 7 10 0 4
BITMAP
30
48
48
48
32
52
8C
84
8C
72
ENDCHAR
STARTCHAR quotesingle
ENCODING 39
SWIDTH 187 0
DWIDTH 3 0
BBX 2 3 0 11
BITMAP
40
40
80
ENDCHAR
STARTCHAR parenleft
ENCODING 40
SWIDTH 250 0
DWIDTH 4 0
BBX 3 11 0 3
BITMAP
20
40
80
80
80
80
80
80
80
40
20
ENDCHAR
STARTCHAR parenright
ENCODING 41
SWIDTH 250 0
DWIDTH 4 0
BBX 3 11 0 3
BITMAP
80
40
20
20
20
20
20
20
20
40
80
ENDCHAR
STARTCHAR asterisk
ENCODING 42
SWIDTH 437 0
DWIDTH 7 0
BBX 6 5 0 6
BITMAP
48
30
FC
30
48
ENDCHAR
STARTCHAR plus
ENCODING 43
SWIDTH 375 0
DWIDTH 6 0
BBX 5 5 0 6
BITMAP
20
20
F8
20
20
ENDCHAR
STARTCHAR comma
ENCODING 44
SWIDTH 187 0
DWIDTH 3 0
BBX 2 3 0 3
BITMAP
40
40
80
ENDCHAR
STARTCHAR hyphen
ENCODING 45
SWIDTH 312 0
DWIDTH 5 0
BBX 4 1 0 8
BITMAP
F0
ENDCHAR
STARTCHAR period
ENCODING 46
SWIDTH 125 0
DWIDTH 2 0
BBX 1 2 0 4
BITMAP
80
80
ENDCHAR
STARTCHAR slash
ENCODING 47
SWIDTH 375 0
DWIDTH 6 0
BBX 5 10 0 4
BITMAP
08
08
10
10
20
20
40
40
80
80
ENDCHAR
STARTCHAR zero
ENCODING 48
SWIDTH 437 0
DWIDTH 7 0
BBX 6 10 0 4
BITMAP
78
84
8C
94
94
A4
A4
C4
84
78
ENDCHAR
STARTCHAR one
ENCODING 49
SWIDTH 312 0
DWIDTH 5 0
BBX 4 10 0 4
BITMAP
10
30
50
90
10
10
10
10
10
10
ENDCHAR
STARTCHAR two
ENCODING 50
SWIDTH 437 0
DWIDTH 7 0
BBX 6 10 0 4
BITMAP
78
84
04
08
10
20
40
80
80
FC
ENDCHAR
STARTCHAR three
ENCODING 51
SWIDTH 437 0
DWIDTH 7 0
BBX 6 10 0 4
BITMAP
78
84
04
04
38
04
04
04
84
78
ENDCHAR
STARTCHAR four
ENCODING 52
SWIDTH 437 0
DWIDTH 7 0
BBX 6 10 0 4
BITMAP
08
18
28
48
88
FC
08
08
08
08
ENDCHAR
STARTCHAR five
ENCODING 53
SWIDTH 437 0
DWIDTH 7 0
BBX 6 10 0 4
BITMAP
FC
80
80
80
F8
04
04
04
84
78
ENDCHAR
STARTCHAR six
ENCODING 54
SWIDTH 437 0
DWIDTH 7 0
BBX 6 10 0 4
BITMAP
38
40
80
80
F8
84
84
84
84
78
ENDCHAR
STARTCHAR seven
ENCODING 55
SWIDTH 437 0
DWIDTH 7 0
BBX 6 10 0 4
BITMAP
FC
04
04
04
08
10
20
20
20
20
ENDCHAR
STARTCHAR eight
ENCODING 56
SWIDTH 437 0
DWIDTH 7 0
BBX 6 10 0 4
BITMAP
78
84
84
84
78
84
84
84
84
78
ENDCHAR
STARTCHAR nine
ENCODING 57
SWIDTH 437 0
DWIDTH 7 0
BBX 6 10 0 4
BITMAP
78
84
84
84
7C
04
04
04
84
78
ENDCHAR
STARTCHAR colon
ENCODING 58
SWIDTH 125 0
DWIDTH 2 0
BBX 1 7 0 4
BITMAP
80
80
00
00
00
80
80
ENDCHAR
STARTCHAR semicolon
ENCODING 59
SWIDTH 187 0
DWIDTH 3 0
BBX 2 8 0 3
BITMAP
40
40
00
00
00
40
40
80
ENDCHAR
STARTCHAR less
ENCODING 60
SWIDTH 375 0
DWIDTH 6 0
BBX 5 9 0 4
BITMAP
08
10
20
40
80
40
20
10
08
ENDCHAR
STARTCHAR equal
ENCODING 61
SWIDTH 437 0
DWIDTH 7 0
BBX 6 3 0 7
BITMAP
FC
00
FC
ENDCHAR
STARTCHAR greater
ENCODING 62
SWIDTH 375 0
DWIDTH 6 0
BBX 5 9 0 4
BITMAP
80
40
20
10
08
10
20
40
80
ENDCHAR
STARTCHAR question
ENCODING 63
SWIDTH 437 0
DWIDTH 7 0
BBX 6 10 0 4
BITMAP
78
84
84
04
08
10
20
00
20
20
ENDCHAR
STARTCHAR at
ENCODING 64
SWIDTH 562 0
DWIDTH 9 0
BBX 8 9 0 4
BITMAP
3C
42
99
85
9D
A5
9E
40
3E
ENDCHAR
STARTCHAR A
ENCODING 65
SWIDTH 437 0
DWIDTH 7 0
BBX 6 10 0 4
BITMAP
78
84
84
84
84
FC
84
84
84
84
ENDCHAR
STARTCHAR B
ENCODING 66
SWIDTH 437 0
DWIDTH 7 0
BBX 6 10 0 4
BITMAP
F8
84
84
84
F8
84
84
84
84
F8
ENDCHAR
STARTCHAR C
ENCODING 67
SWIDTH 437 0
DWIDTH 7 0
BBX 6 10 0 4
BITMAP
78
84
80
80
80
80
80
80
84
78
ENDCHAR
STARTCHAR D
ENCODING 68
SWIDTH 437 0
DWIDTH 7 0
BBX 6 10 0 4
BITMAP
F0
88
84
84
84
84
84
84
88
F0
ENDCHAR
STARTCHAR E
ENCODING 69
SWIDTH 437 0
DWIDTH 7 0
BBX 6 10 0 4
BITMAP
FC
80
80
80
F0
80
80
80
80
FC
ENDCHAR
STARTCHAR F
ENCODING 70
SWIDTH 437 0
DWIDTH 7 0
BBX 6 10 0 4
BITMAP
FC
80
80
80
F0
80
80
80
80
80
ENDCHAR
STARTCHAR G
ENCODING 71
SWIDTH 437 0
DWIDTH 7 0
BBX 6 10 0 4
BITMAP
78
84
80
80
80
9C
84
84
84
78
ENDCHAR
STARTCHAR H
ENCODING 72
SWIDTH 437 0
DWIDTH 7 0
BBX 6 10 0 4
BITMAP
84
84
84
84
FC
84
84
84
84
84
ENDCHAR
STARTCHAR I
ENCODING 73
SWIDTH 125 0
DWIDTH 2 0
BBX 1 10 0 4
BITMAP
80
80
80
80
80
80
80
80
80
80
ENDCHAR
STARTCHAR J
ENCODING 74
SWIDTH 437 0
DWIDTH 7 0
BBX 6 10 0 4
BITMAP
04
04
04
04
04
04
04
84
84
78
ENDCHAR
STARTCHAR K
ENCODING 75
SWIDTH 437 0
DWIDTH 7 0
BBX 6 10 0 4
BITMAP
84
84
88
90
E0
90
88
84
84
84
ENDCHAR
STARTCHAR L
ENCODING 76
SWIDTH 437 0
DWIDTH 7 0
BBX 6 10 0 4
BITMAP
80
80
80
80
80
80
80
80
80
FC
ENDCHAR
STARTCHAR M
ENCODING 77
SWIDTH 500 0
DWIDTH 8 0
BBX 7 10 0 4
BITMAP
82
C6
AA
92
92
82
82
82
82
82
ENDCHAR
STARTCHAR N
ENCODING 78
SWIDTH 437 0
DWIDTH 7 0
BBX 6 10 0 4
BITMAP
84
C4
A4
94
8C
84
84
84
84
84
ENDCHAR
STARTCHAR O
ENCODING 79
SWIDTH 437 0
DWIDTH 7 0
BBX 6 10 0 4
BITMAP
78
84
84
84
84
84
84
84
84
78
ENDCHAR
STARTCHAR P
ENCODING 80
SWIDTH 437 0
DWIDTH 7 0
BBX 6 10 0 4
BITMAP
F8
84
84
84
F8
80
80
80
80
80
ENDCHAR
STARTCHAR Q
ENCODING 81
SWIDTH 437 0
DWIDTH 7 0
BBX 6 11 0 3
BITMAP
78
84
84
84
84
84
84
94
8C
7C
04
ENDCHAR
STARTCHAR R
ENCODING 82
SWIDTH 437 0
DWIDTH 7 0
BBX 6 10 0 4
BITMAP
F8
84
84
84
F8
88
84
84
84
84
ENDCHAR
STARTCHAR S
ENCODING 83
SWIDTH 437 0
DWIDTH 7 0
BBX 6 10 0 4
BITMAP
78
84
80
40
30
08
04
04
84
78
ENDCHAR
STARTCHAR T
ENCODING 84
SWIDTH 500 0
DWIDTH 8 0
BBX 7 10 0 4
BITMAP
FE
10
10
10
10
10
10
10
10
10
ENDCHAR
STARTCHAR U
ENCODING 85
SWIDTH 437 0
DWIDTH 7 0
BBX 6 10 0 4
BITMAP
84
84
84
84
84
84
84
84
84
78
ENDCHAR
STARTCHAR V
ENCODING 86
SWIDTH 500 0
DWIDTH 8 0
BBX 7 10 0 4
BITMAP
82
82
82
82
44
44
28
28
10
10
ENDCHAR
STARTCHAR W
ENCODING 87
SWIDTH 500 0
DWIDTH 8 0
BBX 7 10 0 4
BITMAP
82
82
82
82
92
92
92
AA
C6
82
ENDCHAR
STARTCHAR X
ENCODING 88
SWIDTH 437 0
DWIDTH 7 0
BBX 6 10 0 4
BITMAP
84
84
84
48
30
30
48
84
84
84
ENDCHAR
STARTCHAR Y
ENCODING 89
SWIDTH 500 0
DWIDTH 8 0
BBX 7 10 0 4
BITMAP
82
82
44
44
28
10
10
10
10
10
ENDCHAR
STARTCHAR Z
ENCODING 90
SWIDTH 437 0
DWIDTH 7 0
BBX 6 10 0 4
BITMAP
FC
04
04
08
10
20
40
80
80
FC
ENDCHAR
STARTCHAR bracketleft
ENCODING 91
SWIDTH 250 0
DWIDTH 4 0
BBX 3 11 0 3
BITMAP
E0
80
80
80
80
80
80
80
80
80
E0
ENDCHAR
STARTCHAR backslash
ENCODING 92
SWIDTH 375 0
DWIDTH 6 0
BBX 5 10 0 4
BITMAP
80
80
40
40
20
20
10
10
08
08
ENDCHAR
STARTCHAR bracketright
ENCODING 93
SWIDTH 250 0
DWIDTH 4 0
BBX 3 11 0 3
BITMAP
E0
20
20
20
20
20
20
20
20
20
E0
ENDCHAR
STARTCHAR asciicircum
ENCODING 94
SWIDTH 375 0
DWIDTH 6 0
BBX 5 3 0 12
BITMAP
20
50
88
ENDCHAR
STARTCHAR underscore
ENCODING 95
SWIDTH 437 0
DWIDTH 7 0
BBX 6 1 0 2
BITMAP
FC
ENDCHAR
STARTCHAR grave
ENCODING 96
SWIDTH 187 0
DWIDTH 3 0
BBX 2 3 0 11
BITMAP
80
80
40
ENDCHAR
STARTCHAR a
ENCODING 97
SWIDTH 437 0
DWIDTH 7 0
BBX 6 7 0 4
BITMAP
78
04
7C
84
84
84
7C
ENDCHAR
STARTCHAR b
ENCODING 98
SWIDTH 437 0
DWIDTH 7 0
BBX 6 10 0 4
BITMAP
80
80
80
F8
84
84
84
84
84
F8
ENDCHAR
STARTCHAR c
ENCODING 99
SWIDTH 437 0
DWIDTH 7 0
BBX 6 7 0 4
BITMAP
78
84
80
80
80
84
78
ENDCHAR
STARTCHAR d
ENCODING 100
SWIDTH 437 0
DWIDTH 7 0
BBX 6 10 0 4
BITMAP
04
04
04
7C
84
84
84
84
84
7C
ENDCHAR
STARTCHAR e
ENCODING 101
SWIDTH 437 0
DWIDTH 7 0
BBX 6 7 0 4
BITMAP
78
84
84
FC
80
84
78
ENDCHAR
STARTCHAR f
ENCODING 102
SWIDTH 437 0
DWIDTH 7 0
BBX 6 10 0 4
BITMAP
38
44
40
40
F0
40
40
40
40
40
ENDCHAR
STARTCHAR g
ENCODING 103
SWIDTH 437 0
DWIDTH 7 0
BBX 6 10 0 1
BITMAP
78
84
84
84
84
8C
74
04
84
78
ENDCHAR
STARTCHAR h
ENCODING 104
SWIDTH 437 0
DWIDTH 7 0
BBX 6 10 0 4
BITMAP
80
80
80
F8
84
84
84
84
84
84
ENDCHAR
STARTCHAR i
ENCODING 105
SWIDTH 125 0
DWIDTH 2 0
BBX 1 9 0 4
BITMAP
80
00
80
80
80
80
80
80
80
ENDCHAR
STARTCHAR j
ENCODING 106
SWIDTH 375 0
DWIDTH 6 0
BBX 5 12 0 1
BITMAP
08
00
08
08
08
08
08
08
08
88
88
70
ENDCHAR
STARTCHAR k
ENCODING 107
SWIDTH 437 0
DWIDTH 7 0
BBX 6 10 0 4
BITMAP
80
80
80
84
84
88
F0
88
84
84
ENDCHAR
STARTCHAR l
ENCODING 108
SWIDTH 187 0
DWIDTH 3 0
BBX 2 10 0 4
BITMAP
80
80
80
80
80
80
80
80
80
40
ENDCHAR
STARTCHAR m
ENCODING 109
SWIDTH 500 0
DWIDTH 8 0
BBX 7 7 0 4
BITMAP
EC
92
92
92
92
92
82
ENDCHAR
STARTCHAR n
ENCODING 110
SWIDTH 437 0
DWIDTH 7 0
BBX 6 7 0 4
BITMAP
F8
84
84
84
84
84
84
ENDCHAR
STARTCHAR o
ENCODING 111
SWIDTH 437 0
DWIDTH 7 0
BBX 6 7 0 4
BITMAP
78
84
84
84
84
84
78
ENDCHAR
STARTCHAR p
ENCODING 112
SWIDTH 437 0
DWIDTH 7 0
BBX 6 10 0 1
BITMAP
F8
84
84
84
84
84
F8
80
80
80
ENDCHAR
STARTCHAR q
ENCODING 113
SWIDTH 437 0
DWIDTH 7 0
BBX 6 10 0 1
BITMAP
7C
84
84
84
84
84
7C
04
04
04
ENDCHAR
STARTCHAR r
ENCODING 114
SWIDTH 375 0
DWIDTH 6 0
BBX 5 7 0 4
BITMAP
B8
C0
80
80
80
80
80
ENDCHAR
STARTCHAR s
ENCODING 115
SWIDTH 437 0
DWIDTH 7 0
BBX 6 7 0 4
BITMAP
78
84
80
78
04
84
78
ENDCHAR
STARTCHAR t
ENCODING 116
SWIDTH 375 0
DWIDTH 6 0
BBX 5 9 0 4
BITMAP
20
20
F8
20
20
20
20
20
18
ENDCHAR
STARTCHAR u
ENCODING 117
SWIDTH 437 0
DWIDTH 7 0
BBX 6 7 0 4
BITMAP
84
84
84
84
84
84
7C
ENDCHAR
STARTCHAR v
ENCODING 118
SWIDTH 500 0
DWIDTH 8 0
BBX 7 7 0 4
BITMAP
82
82
44
44
28
28
10
ENDCHAR
STARTCHAR w
ENCODING 119
SWIDTH 500 0
DWIDTH 8 0
BBX 7 7 0 4
BITMAP
82
82
92
92
92
AA
44
ENDCHAR
STARTCHAR x
ENCODING 120
SWIDTH 500 0
DWIDTH 8 0
BBX 7 7 0 4
BITMAP
82
44
28
10
28
44
82
ENDCHAR
STARTCHAR y
ENCODING 121
SWIDTH 437 0
DWIDTH 7 0
BBX 6 10 0 1
BITMAP
84
84
84
84
84
8C
74
04
08
F0
ENDCHAR
STARTCHAR z
ENCODING 122
SWIDTH 437 0
DWIDTH 7 0
BBX 6 7 0 4
BITMAP
FC
08
10
20
40
80
FC
ENDCHAR
STARTCHAR braceleft
ENCODING 123
SWIDTH 375 0
DWIDTH 6 0
BBX 5 11 0 3
BITMAP
18
20
20
20
20
C0
20
20
20
20
18
ENDCHAR
STARTCHAR bar
ENCODING 124
SWIDTH 125 0
DWIDTH 2 0
BBX 1 10 0 4
BITMAP
80
80
80
80
00
80
80
80
80
80
ENDCHAR
STARTCHAR braceright
ENCODING 125
SWIDTH 375 0
DWIDTH 6 0
BBX 5 11 0 3
BITMAP
C0
20
20
20
20
18
20
20
20
20
C0
ENDCHAR
STARTCHAR asciitilde
ENCODING 126
SWIDTH 437 0
DWIDTH 7 0
BBX 6 2 0 12
BITMAP
64
98
ENDCHAR
STARTCHAR uni007F
ENCODING 127
SWIDTH 500 0
DWIDTH 8 0
BBX 7 12 0 3
BITMAP
C0
A0
A0
C0
00
30
30
20
34
04
04
06
ENDCHAR
STARTCHAR Euro
ENCODING 128
SWIDTH 250 0
DWIDTH 4 0
BBX 1 1 0 0
BITMAP
00
ENDCHAR
STARTCHAR NameMe.129.1
ENCODING 129
SWIDTH 250 0
DWIDTH 4 0
BBX 1 1 0 0
BITMAP
00
ENDCHAR
STARTCHAR quotesinglbase
ENCODING 130
SWIDTH 250 0
DWIDTH 4 0
BBX 1 1 0 0
BITMAP
00
ENDCHAR
STARTCHAR florin
ENCODING 131
SWIDTH 250 0
DWIDTH 4 0
BBX 1 1 0 0
BITMAP
00
ENDCHAR
STARTCHAR quotedblbase
ENCODING 132
SWIDTH 250 0
DWIDTH 4 0
BBX 1 1 0 0
BITMAP
00
ENDCHAR
STARTCHAR ellipsis
ENCODING 133
SWIDTH 250 0
DWIDTH 4 0
BBX 1 1 0 0
BITMAP
00
ENDCHAR
STARTCHAR dagger
ENCODING 134
SWIDTH 250 0
DWIDTH 4 0
BBX 1 1 0 0
BITMAP
00
ENDCHAR
STARTCHAR daggerdbl
ENCODING 135
SWIDTH 250 0
DWIDTH 4 0
BBX 1 1 0 0
BITMAP
00
ENDCHAR
STARTCHAR circumflex
ENCODING 136
SWIDTH 250 0
DWIDTH 4 0
BBX 1 1 0 0
BITMAP
00
ENDCHAR
STARTCHAR perthousand
ENCODING 137
SWIDTH 250 0
DWIDTH 4 0
BBX 1 1 0 0
BITMAP
00
ENDCHAR
STARTCHAR Scaron
ENCODING 138
SWIDTH 250 0
DWIDTH 4 0
BBX 1 1 0 0
BITMAP
00
ENDCHAR
STARTCHAR guilsinglleft
ENCODING 139
SWIDTH 250 0
DWIDTH 4 0
BBX 1 1 0 0
BITMAP
00
ENDCHAR
STARTCHAR OE
ENCODING 140
SWIDTH 250 0
DWIDTH 4 0
BBX 1 1 0 0
BITMAP
00
ENDCHAR
STARTCHAR NameMe.141.1
ENCODING 141
SWIDTH 250 0
DWIDTH 4 0
BBX 1 1 0 0
BITMAP
00
ENDCHAR
STARTCHAR Zcaron
ENCODING 142
SWIDTH 250 0
DWIDTH 4 0
BBX 1 1 0 0
BITMAP
00
ENDCHAR
STARTCHAR NameMe.143.1
ENCODING 143
SWIDTH 250 0
DWIDTH 4 0
BBX 1 1 0 0
BITMAP
00
ENDCHAR
STARTCHAR NameMe.144.1
ENCODING 144
SWIDTH 250 0
DWIDTH 4 0
BBX 1 1 0 0
BITMAP
00
ENDCHAR
STARTCHAR quoteleft
ENCODING 145
SWIDTH 250 0
DWIDTH 4 0
BBX 1 1 0 0
BITMAP
00
ENDCHAR
STARTCHAR quoteright
ENCODING 146
SWIDTH 250 0
DWIDTH 4 0
BBX 1 1 0 0
BITMAP
00
ENDCHAR
STARTCHAR quotedblleft
ENCODING 147
SWIDTH 250 0
DWIDTH 4 0
BBX 1 1 0 0
BITMAP
00
ENDCHAR
STARTCHAR quotedblright
ENCODING 148
SWIDTH 250 0
DWIDTH 4 0
BBX 1 1 0 0
BITMAP
00
ENDCHAR
STARTCHAR bullet
ENCODING 149
SWIDTH 250 0
DWIDTH 4 0
BBX 1 1 0 0
BITMAP
00
ENDCHAR
STARTCHAR endash
ENCODING 150
SWIDTH 250 0
DWIDTH 4 0
BBX 1 1 0 0
BITMAP
00
ENDCHAR
STARTCHAR emdash
ENCODING 151
SWIDTH 250 0
DWIDTH 4 0
BBX 1 1 0 0
BITMAP
00
ENDCHAR
STARTCHAR tilde
ENCODING 152
SWIDTH 250 0
DWIDTH 4 0
BBX 1 1 0 0
BITMAP
00
ENDCHAR
STARTCHAR trademark
ENCODING 153
SWIDTH 250 0
DWIDTH 4 0
BBX 1 1 0 0
BITMAP
00
ENDCHAR
STARTCHAR scaron
ENCODING 154
SWIDTH 250 0
DWIDTH 4 0
BBX 1 1 0 0
BITMAP
00
ENDCHAR
STARTCHAR guilsinglright
ENCODING 155
SWIDTH 250 0
DWIDTH 4 0
BBX 1 1 0 0
BITMAP
00
ENDCHAR
STARTCHAR oe
ENCODING 156
SWIDTH 250 0
DWIDTH 4 0
BBX 1 1 0 0
BITMAP
00
ENDCHAR
STARTCHAR NameMe.157.1
ENCODING 157
SWIDTH 250 0
DWIDTH 4 0
BBX 1 1 0 0
BITMAP
00
ENDCHAR
STARTCHAR zcaron
ENCODING 158
SWIDTH 250 0
DWIDTH 4 0
BBX 1 1 0 0
BITMAP
00
ENDCHAR
STARTCHAR Ydieresis
ENCODING 159
SWIDTH 250 0
DWIDTH 4 0
BBX 1 1 0 0
BITMAP
00
ENDCHAR
STARTCHAR uni00A0
ENCODING 160
SWIDTH 250 0
DWIDTH 4 0
BBX 1 1 0 0
BITMAP
00
ENDCHAR
STARTCHAR exclamdown
ENCODING 161
SWIDTH 125 0
DWIDTH 2 0
BBX 1 10 0 4
BITMAP
80
80
00
80
80
80
80
80
80
80
ENDCHAR
STARTCHAR cent
ENCODING 162
SWIDTH 437 0
DWIDTH 7 0
BBX 6 10 0 2
BITMAP
08
78
94
90
90
90
A4
78
20
40
ENDCHAR
STARTCHAR sterling
ENCODING 163
SWIDTH 375 0
DWIDTH 6 0
BBX 5 10 0 4
BITMAP
30
40
40
40
E0
40
40
40
40
B8
ENDCHAR
STARTCHAR currency
ENCODING 164
SWIDTH 562 0
DWIDTH 9 0
BBX 8 9 0 4
BITMAP
81
5A
24
42
42
42
24
5A
81
ENDCHAR
STARTCHAR yen
ENCODING 165
SWIDTH 500 0
DWIDTH 8 0
BBX 7 10 0 4
BITMAP
82
82
44
28
10
7C
10
7C
10
10
ENDCHAR
STARTCHAR brokenbar
ENCODING 166
SWIDTH 125 0
DWIDTH 2 0
BBX 1 10 0 4
BITMAP
80
80
80
80
80
80
80
80
80
80
ENDCHAR
STARTCHAR section
ENCODING 167
SWIDTH 437 0
DWIDTH 7 0
BBX 6 10 0 4
BITMAP
78
84
80
78
84
84
78
04
84
78
ENDCHAR
STARTCHAR dieresis
ENCODING 168
SWIDTH 312 0
DWIDTH 5 0
BBX 4 2 0 12
BITMAP
90
90
ENDCHAR
STARTCHAR copyright
ENCODING 169
SWIDTH 562 0
DWIDTH 9 0
BBX 8 9 0 4
BITMAP
3C
42
99
A5
A1
A5
99
42
3C
ENDCHAR
STARTCHAR ordfeminine
ENCODING 170
SWIDTH 250 0
DWIDTH 4 0
BBX 3 6 0 8
BITMAP
E0
20
E0
E0
00
E0
ENDCHAR
STARTCHAR guillemotleft
ENCODING 171
SWIDTH 500 0
DWIDTH 8 0
BBX 7 7 0 5
BITMAP
12
24
48
90
48
24
12
ENDCHAR
STARTCHAR logicalnot
ENCODING 172
SWIDTH 437 0
DWIDTH 7 0
BBX 6 5 0 5
BITMAP
FC
04
04
04
04
ENDCHAR
STARTCHAR uni00AD
ENCODING 173
SWIDTH 250 0
DWIDTH 4 0
BBX 1 1 0 0
BITMAP
00
ENDCHAR
STARTCHAR registered
ENCODING 174
SWIDTH 562 0
DWIDTH 9 0
BBX 8 9 0 4
BITMAP
3C
42
B9
A5
B9
A5
A5
42
3C
ENDCHAR
STARTCHAR macron
ENCODING 175
SWIDTH 375 0
DWIDTH 6 0
BBX 5 1 0 12
BITMAP
F8
ENDCHAR
STARTCHAR degree
ENCODING 176
SWIDTH 312 0
DWIDTH 5 0
BBX 4 4 0 10
BITMAP
60
90
90
60
ENDCHAR
STARTCHAR plusminus
ENCODING 177
SWIDTH 375 0
DWIDTH 6 0
BBX 5 7 0 4
BITMAP
20
20
F8
20
20
00
F8
ENDCHAR
STARTCHAR uni00B2
ENCODING 178
SWIDTH 312 0
DWIDTH 5 0
BBX 4 5 0 9
BITMAP
60
90
20
40
F0
ENDCHAR
STARTCHAR uni00B3
ENCODING 179
SWIDTH 312 0
DWIDTH 5 0
BBX 4 5 0 9
BITMAP
60
90
20
90
60
ENDCHAR
STARTCHAR acute
ENCODING 180
SWIDTH 187 0
DWIDTH 3 0
BBX 2 4 0 11
BITMAP
40
40
40
80
ENDCHAR
STARTCHAR mu
ENCODING 181
SWIDTH 437 0
DWIDTH 7 0
BBX 6 10 0 1
BITMAP
88
88
88
88
88
88
F4
80
80
80
ENDCHAR
STARTCHAR paragraph
ENCODING 182
SWIDTH 500 0
DWIDTH 8 0
BBX 7 7 0 4
BITMAP
FE
44
44
44
44
44
44
ENDCHAR
STARTCHAR periodcentered
ENCODING 183
SWIDTH 125 0
DWIDTH 2 0
BBX 1 2 0 8
BITMAP
80
80
ENDCHAR
STARTCHAR cedilla
ENCODING 184
SWIDTH 250 0
DWIDTH 4 0
BBX 3 3 0 3
BITMAP
40
20
C0
ENDCHAR
STARTCHAR uni00B9
ENCODING 185
SWIDTH 250 0
DWIDTH 4 0
BBX 3 5 0 9
BITMAP
60
A0
20
20
20
ENDCHAR
STARTCHAR ordmasculine
ENCODING 186
SWIDTH 312 0
DWIDTH 5 0
BBX 4 6 0 8
BITMAP
60
90
90
60
00
F0
ENDCHAR
STARTCHAR guillemotright
ENCODING 187
SWIDTH 500 0
DWIDTH 8 0
BBX 7 7 0 5
BITMAP
90
48
24
12
24
48
90
ENDCHAR
STARTCHAR onequarter
ENCODING 188
SWIDTH 437 0
DWIDTH 7 0
BBX 6 11 0 4
BITMAP
80
88
88
90
10
20
24
48
50
9C
84
ENDCHAR
STARTCHAR onehalf
ENCODING 189
SWIDTH 437 0
DWIDTH 7 0
BBX 6 11 0 4
BITMAP
80
88
88
90
10
20
2C
44
48
90
9C
ENDCHAR
STARTCHAR threequarters
ENCODING 190
SWIDTH 437 0
DWIDTH 7 0
BBX 6 11 0 4
BITMAP
C0
48
C8
50
D0
20
24
48
50
9C
84
ENDCHAR
STARTCHAR questiondown
ENCODING 191
SWIDTH 437 0
DWIDTH 7 0
BBX 6 10 0 4
BITMAP
10
10
00
10
20
40
80
84
84
78
ENDCHAR
STARTCHAR Agrave
ENCODING 192
SWIDTH 437 0
DWIDTH 7 0
BBX 6 12 0 4
BITMAP
20
10
00
78
84
84
84
FC
84
84
84
84
ENDCHAR
STARTCHAR Aacute
ENCODING 193
SWIDTH 437 0
DWIDTH 7 0
BBX 6 12 0 4
BITMAP
08
10
00
78
84
84
84
FC
84
84
84
84
ENDCHAR
STARTCHAR Acircumflex
ENCODING 194
SWIDTH 437 0
DWIDTH 7 0
BBX 6 12 0 4
BITMAP
30
48
00
78
84
84
84
FC
84
84
84
84
ENDCHAR
STARTCHAR Atilde
ENCODING 195
SWIDTH 437 0
DWIDTH 7 0
BBX 6 12 0 4
BITMAP
28
50
00
78
84
84
84
FC
84
84
84
84
ENDCHAR
STARTCHAR Adieresis
ENCODING 196
SWIDTH 437 0
DWIDTH 7 0
BBX 6 12 0 4
BITMAP
48
00
78
84
84
84
84
FC
84
84
84
84
ENDCHAR
STARTCHAR Aring
ENCODING 197
SWIDTH 437 0
DWIDTH 7 0
BBX 6 12 0 4
BITMAP
30
30
00
78
84
84
84
FC
84
84
84
84
ENDCHAR
STARTCHAR AE
ENCODING 198
SWIDTH 562 0
DWIDTH 9 0
BBX 8 10 0 4
BITMAP
3F
48
88
88
88
FE
88
88
88
8F
ENDCHAR
STARTCHAR Ccedilla
ENCODING 199
SWIDTH 437 0
DWIDTH 7 0
BBX 6 13 0 1
BITMAP
78
84
80
80
80
80
80
80
84
78
20
10
30
ENDCHAR
STARTCHAR Egrave
ENCODING 200
SWIDTH 437 0
DWIDTH 7 0
BBX 6 12 0 4
BITMAP
20
10
00
FC
80
80
F0
80
80
80
80
FC
ENDCHAR
STARTCHAR Eacute
ENCODING 201
SWIDTH 437 0
DWIDTH 7 0
BBX 6 12 0 4
BITMAP
08
10
00
FC
80
80
F0
80
80
80
80
FC
ENDCHAR
STARTCHAR Ecircumflex
ENCODING 202
SWIDTH 437 0
DWIDTH 7 0
BBX 6 12 0 4
BITMAP
30
48
00
FC
80
80
F0
80
80
80
80
FC
ENDCHAR
STARTCHAR Edieresis
ENCODING 203
SWIDTH 437 0
DWIDTH 7 0
BBX 6 12 0 4
BITMAP
48
00
FC
80
80
80
F0
80
80
80
80
FC
ENDCHAR
STARTCHAR Igrave
ENCODING 204
SWIDTH 187 0
DWIDTH 3 0
BBX 2 12 0 4
BITMAP
80
40
00
40
40
40
40
40
40
40
40
40
ENDCHAR
STARTCHAR Iacute
ENCODING 205
SWIDTH 187 0
DWIDTH 3 0
BBX 2 12 0 4
BITMAP
40
80
00
80
80
80
80
80
80
80
80
80
ENDCHAR
STARTCHAR Icircumflex
ENCODING 206
SWIDTH 250 0
DWIDTH 4 0
BBX 3 12 0 4
BITMAP
40
A0
00
40
40
40
40
40
40
40
40
40
ENDCHAR
STARTCHAR Idieresis
ENCODING 207
SWIDTH 250 0
DWIDTH 4 0
BBX 3 12 0 4
BITMAP
A0
00
40
40
40
40
40
40
40
40
40
40
ENDCHAR
STARTCHAR Eth
ENCODING 208
SWIDTH 500 0
DWIDTH 8 0
BBX 7 10 0 4
BITMAP
78
44
42
F2
42
42
42
42
44
78
ENDCHAR
STARTCHAR Ntilde
ENCODING 209
SWIDTH 437 0
DWIDTH 7 0
BBX 6 12 0 4
BITMAP
28
50
00
84
C4
A4
94
8C
84
84
84
84
ENDCHAR
STARTCHAR Ograve
ENCODING 210
SWIDTH 437 0
DWIDTH 7 0
BBX 6 12 0 4
BITMAP
20
10
00
78
84
84
84
84
84
84
84
78
ENDCHAR
STARTCHAR Oacute
ENCODING 211
SWIDTH 437 0
DWIDTH 7 0
BBX 6 12 0 4
BITMAP
08
10
00
78
84
84
84
84
84
84
84
78
ENDCHAR
STARTCHAR Ocircumflex
ENCODING 212
SWIDTH 437 0
DWIDTH 7 0
BBX 6 12 0 4
BITMAP
30
48
00
78
84
84
84
84
84
84
84
78
ENDCHAR
STARTCHAR Otilde
ENCODING 213
SWIDTH 437 0
DWIDTH 7 0
BBX 6 12 0 4
BITMAP
28
50
00
78
84
84
84
84
84
84
84
78
ENDCHAR
STARTCHAR Odieresis
ENCODING 214
SWIDTH 437 0
DWIDTH 7 0
BBX 6 12 0 4
BITMAP
48
00
78
84
84
84
84
84
84
84
84
78
ENDCHAR
STARTCHAR multiply
ENCODING 215
SWIDTH 437 0
DWIDTH 7 0
BBX 6 6 0 4
BITMAP
84
48
30
30
48
84
ENDCHAR
STARTCHAR Oslash
ENCODING 216
SWIDTH 562 0
DWIDTH 9 0
BBX 8 10 0 4
BITMAP
3D
43
42
46
4A
52
62
42
C2
BC
ENDCHAR
STARTCHAR Ugrave
ENCODING 217
SWIDTH 437 0
DWIDTH 7 0
BBX 6 12 0 4
BITMAP
20
10
84
84
84
84
84
84
84
84
84
78
ENDCHAR
STARTCHAR Uacute
ENCODING 218
SWIDTH 437 0
DWIDTH 7 0
BBX 6 12 0 4
BITMAP
08
10
84
84
84
84
84
84
84
84
84
78
ENDCHAR
STARTCHAR Ucircumflex
ENCODING 219
SWIDTH 437 0
DWIDTH 7 0
BBX 6 12 0 4
BITMAP
30
48
00
84
84
84
84
84
84
84
84
78
ENDCHAR
STARTCHAR Udieresis
ENCODING 220
SWIDTH 437 0
DWIDTH 7 0
BBX 6 12 0 4
BITMAP
48
00
84
84
84
84
84
84
84
84
84
78
ENDCHAR
STARTCHAR Yacute
ENCODING 221
SWIDTH 500 0
DWIDTH 8 0
BBX 7 12 0 4
BITMAP
08
10
82
82
44
44
28
10
10
10
10
10
ENDCHAR
STARTCHAR Thorn
ENCODING 222
SWIDTH 375 0
DWIDTH 6 0
BBX 5 10 0 4
BITMAP
80
80
B0
C8
88
88
C8
B0
80
80
ENDCHAR
STARTCHAR germandbls
ENCODING 223
SWIDTH 437 0
DWIDTH 7 0
BBX 6 10 0 4
BITMAP
70
88
88
88
90
88
84
84
84
98
ENDCHAR
STARTCHAR agrave
ENCODING 224
SWIDTH 437 0
DWIDTH 7 0
BBX 6 10 0 4
BITMAP
20
10
00
78
04
7C
84
84
84
7C
ENDCHAR
STARTCHAR aacute
ENCODING 225
SWIDTH 437 0
DWIDTH 7 0
BBX 6 10 0 4
BITMAP
08
10
00
78
04
7C
84
84
84
7C
ENDCHAR
STARTCHAR acircumflex
ENCODING 226
SWIDTH 437 0
DWIDTH 7 0
BBX 6 10 0 4
BITMAP
30
48
00
78
04
7C
84
84
84
7C
ENDCHAR
STARTCHAR atilde
ENCODING 227
SWIDTH 437 0
DWIDTH 7 0
BBX 6 9 0 4
BITMAP
78
00
78
04
7C
84
84
84
7C
ENDCHAR
STARTCHAR adieresis
ENCODING 228
SWIDTH 437 0
DWIDTH 7 0
BBX 6 9 0 4
BITMAP
48
00
78
04
7C
84
84
84
7C
ENDCHAR
STARTCHAR aring
ENCODING 229
SWIDTH 437 0
DWIDTH 7 0
BBX 6 10 0 4
BITMAP
30
30
00
78
04
7C
84
84
84
7C
ENDCHAR
STARTCHAR ae
ENCODING 230
SWIDTH 500 0
DWIDTH 8 0
BBX 7 7 0 4
BITMAP
7C
12
7E
90
90
92
7C
ENDCHAR
STARTCHAR ccedilla
ENCODING 231
SWIDTH 437 0
DWIDTH 7 0
BBX 6 9 0 2
BITMAP
78
84
80
80
80
84
78
10
30
ENDCHAR
STARTCHAR egrave
ENCODING 232
SWIDTH 437 0
DWIDTH 7 0
BBX 6 10 0 4
BITMAP
20
10
00
78
84
84
FC
80
84
78
ENDCHAR
STARTCHAR eacute
ENCODING 233
SWIDTH 437 0
DWIDTH 7 0
BBX 6 10 0 4
BITMAP
08
10
00
78
84
84
FC
80
84
78
ENDCHAR
STARTCHAR ecircumflex
ENCODING 234
SWIDTH 437 0
DWIDTH 7 0
BBX 6 10 0 4
BITMAP
30
48
00
78
84
84
FC
80
84
78
ENDCHAR
STARTCHAR edieresis
ENCODING 235
SWIDTH 437 0
DWIDTH 7 0
BBX 6 9 0 4
BITMAP
48
00
78
84
84
FC
80
84
78
ENDCHAR
STARTCHAR igrave
ENCODING 236
SWIDTH 187 0
DWIDTH 3 0
BBX 2 10 0 4
BITMAP
80
40
00
40
40
40
40
40
40
40
ENDCHAR
STARTCHAR iacute
ENCODING 237
SWIDTH 187 0
DWIDTH 3 0
BBX 2 10 0 4
BITMAP
40
80
00
80
80
80
80
80
80
80
ENDCHAR
STARTCHAR icircumflex
ENCODING 238
SWIDTH 250 0
DWIDTH 4 0
BBX 3 10 0 4
BITMAP
40
A0
00
40
40
40
40
40
40
40
ENDCHAR
STARTCHAR idieresis
ENCODING 239
SWIDTH 250 0
DWIDTH 4 0
BBX 3 9 0 4
BITMAP
A0
00
40
40
40
40
40
40
40
ENDCHAR
STARTCHAR eth
ENCODING 240
SWIDTH 437 0
DWIDTH 7 0
BBX 6 10 0 4
BITMAP
28
10
28
08
74
8C
84
84
84
7C
ENDCHAR
STARTCHAR ntilde
ENCODING 241
SWIDTH 437 0
DWIDTH 7 0
BBX 6 9 0 4
BITMAP
78
00
F8
84
84
84
84
84
84
ENDCHAR
STARTCHAR ograve
ENCODING 242
SWIDTH 437 0
DWIDTH 7 0
BBX 6 10 0 4
BITMAP
20
10
00
78
84
84
84
84
84
78
ENDCHAR
STARTCHAR oacute
ENCODING 243
SWIDTH 437 0
DWIDTH 7 0
BBX 6 10 0 4
BITMAP
08
10
00
78
84
84
84
84
84
78
ENDCHAR
STARTCHAR ocircumflex
ENCODING 244
SWIDTH 437 0
DWIDTH 7 0
BBX 6 10 0 4
BITMAP
30
48
00
78
84
84
84
84
84
78
ENDCHAR
STARTCHAR otilde
ENCODING 245
SWIDTH 437 0
DWIDTH 7 0
BBX 6 9 0 4
BITMAP
78
00
78
84
84
84
84
84
78
ENDCHAR
STARTCHAR odieresis
ENCODING 246
SWIDTH 437 0
DWIDTH 7 0
BBX 6 9 0 4
BITMAP
48
00
78
84
84
84
84
84
78
ENDCHAR
STARTCHAR divide
ENCODING 247
SWIDTH 375 0
DWIDTH 6 0
BBX 5 7 0 5
BITMAP
20
20
00
F8
00
20
20
ENDCHAR
STARTCHAR oslash
ENCODING 248
SWIDTH 562 0
DWIDTH 9 0
BBX 8 9 0 3
BITMAP
01
3E
46
4A
52
52
62
7C
80
ENDCHAR
STARTCHAR ugrave
ENCODING 249
SWIDTH 437 0
DWIDTH 7 0
BBX 6 10 0 4
BITMAP
20
10
00
84
84
84
84
84
84
7C
ENDCHAR
STARTCHAR uacute
ENCODING 250
SWIDTH 437 0
DWIDTH 7 0
BBX 6 10 0 4
BITMAP
08
10
00
84
84
84
84
84
84
7C
ENDCHAR
STARTCHAR ucircumflex
ENCODING 251
SWIDTH 437 0
DWIDTH 7 0
BBX 6 10 0 4
BITMAP
30
48
00
84
84
84
84
84
84
7C
ENDCHAR
STARTCHAR udieresis
ENCODING 252
SWIDTH 437 0
DWIDTH 7 0
BBX 6 9 0 4
BITMAP
48
00
84
84
84
84
84
84
7C
ENDCHAR
STARTCHAR yacute
ENCODING 253
SWIDTH 437 0
DWIDTH 7 0
BBX 6 13 0 1
BITMAP
08
10
00
84
84
84
84
84
8C
74
04
08
F0
ENDCHAR
STARTCHAR thorn
ENCODING 254
SWIDTH 312 0
DWIDTH 5 0
BBX 4 10 0 4
BITMAP
80
80
80
E0
90
90
E0
80
80
80
ENDCHAR
STARTCHAR ydieresis
ENCODING 255
SWIDTH 437 0
DWIDTH 7 0
BBX 6 12 0 1
BITMAP
48
00
84
84
84
84
84
8C
74
04
08
F0
ENDCHAR
ENDFONT
